<?xml version="1.0" encoding="UTF-8"?>
<svg version="1.1" xmlns="http://www.w3.org/2000/svg" width="1024" height="1024">
<path d="M0 0 C337.92 0 675.84 0 1024 0 C1024 337.92 1024 675.84 1024 1024 C686.08 1024 348.16 1024 0 1024 C0 686.08 0 348.16 0 0 Z " fill="#F9FAFA" transform="translate(0,0)"/>
<path d="M0 0 C1.45621617 -0.00913666 1.45621617 -0.00913666 2.94185084 -0.01845789 C6.18593769 -0.03507018 9.42963127 -0.03031449 12.67375183 -0.0255127 C15.00336107 -0.03285407 17.33296668 -0.0414405 19.66256714 -0.05117798 C25.98496869 -0.07339634 32.30723992 -0.07632445 38.62967515 -0.07443047 C43.9104181 -0.07431077 49.19113343 -0.08287465 54.47186869 -0.09120798 C67.6447196 -0.11198275 80.81750116 -0.11259178 93.99036267 -0.10540086 C105.41607303 -0.09982761 116.84155902 -0.12064396 128.26721696 -0.15376133 C140.01285505 -0.18754057 151.75838578 -0.20266133 163.50407332 -0.1980443 C170.09284882 -0.19597761 176.68140089 -0.20144406 183.27013588 -0.22593689 C189.46809286 -0.24821581 195.66558335 -0.24631597 201.86354256 -0.22600937 C204.13467014 -0.22260132 206.40582918 -0.22767945 208.67691422 -0.24199295 C211.78490614 -0.26022508 214.89132218 -0.24740578 217.99926758 -0.22705078 C218.89141002 -0.23956863 219.78355246 -0.25208648 220.70272952 -0.26498365 C228.07066744 -0.16200389 234.46743484 2.15051449 240.07659703 7.03827244 C249.77642906 17.09732126 248.76420758 30.02068018 248.70768738 42.99963379 C248.71311323 45.09161363 248.72023849 47.18358964 248.72892761 49.27555847 C248.74710975 54.93677729 248.74011414 60.5977034 248.72741127 66.25892711 C248.71725581 72.19549878 248.72668414 78.13204607 248.73295593 84.06861877 C248.74022548 94.03753133 248.73066334 104.00632521 248.71159363 113.97521973 C248.68983229 125.48374065 248.69687383 136.991978 248.71889925 148.50049204 C248.73708006 158.39804819 248.73959827 168.29551922 248.72914457 178.19308668 C248.72292364 184.09713959 248.72203537 190.00105944 248.73529053 195.90510368 C248.74688716 201.45795327 248.73875353 207.01043909 248.7157135 212.56324959 C248.71044652 214.59529137 248.71190552 216.62736402 248.72076416 218.65939331 C248.82086373 243.96312512 248.82086373 243.96312512 239.31126869 253.61130959 C232.89374676 259.00603878 225.13969936 259.9837316 217.04396057 259.90234375 C216.07325894 259.90858371 215.10255731 259.91482368 214.10244048 259.92125273 C210.87669014 259.93710201 207.65170393 259.92461 204.4259491 259.9119873 C202.10250409 259.91741192 199.77906253 259.92453648 197.45562744 259.93322754 C191.16447455 259.95142119 184.87358483 259.94441007 178.5824275 259.9317112 C172.66044694 259.92259483 166.73849851 259.92956258 160.81651707 259.93541998 C148.37547683 259.94680657 135.93455478 259.93374141 123.49353392 259.91221851 C112.82950775 259.89434083 102.16565574 259.8974608 91.50163269 259.91589355 C79.10003407 259.93731985 66.69853878 259.94571693 54.29692423 259.9334445 C47.73848389 259.9272128 41.18016341 259.92636543 34.6217308 259.93959045 C28.45742549 259.9511533 22.29344885 259.94311476 16.129179 259.92001343 C13.86850594 259.9147292 11.60780517 259.91623517 9.34714317 259.92506409 C6.25848687 259.93601375 3.17088029 259.92226216 0.08229065 259.90234375 C-1.25575558 259.91572808 -1.25575558 259.91572808 -2.62083304 259.9293828 C-10.02801651 259.83688689 -16.20910547 257.54072735 -21.55989075 252.26940918 C-30.5531951 242.13579388 -29.38757087 230.07667432 -29.34333801 217.31433105 C-29.35040232 215.17146716 -29.35914948 213.02860825 -29.3694458 210.88575745 C-29.39189033 205.08619413 -29.38901176 199.28690436 -29.38012433 193.48731422 C-29.37500406 188.63886089 -29.38231534 183.79045849 -29.3895964 178.9420104 C-29.40657929 167.5021069 -29.40304518 156.06233684 -29.38630676 144.62243652 C-29.36938003 132.83324528 -29.3852315 121.04442418 -29.41752964 109.25527334 C-29.44424383 99.1190904 -29.45149677 88.98302256 -29.44301456 78.84680796 C-29.43809161 72.79910978 -29.44026733 66.75163435 -29.46080208 60.70396423 C-29.47918815 55.01727888 -29.47316416 49.33112527 -29.44860268 43.64446831 C-29.44360448 41.56201377 -29.44705865 39.47951849 -29.45975113 37.39709663 C-29.582181 15.57840532 -29.582181 15.57840532 -22.0545435 7.51386261 C-15.51235232 1.22493 -8.74824211 -0.05185602 0 0 Z " fill="#121212" transform="translate(131.8098907470703,349.6055908203125)"/>
<path d="M0 0 C5.26575829 0.81842611 7.65976964 5.40540049 10.7253418 9.42358398 C11.53140869 10.46119873 11.53140869 10.46119873 12.35375977 11.51977539 C14.16607181 13.86784938 15.9496049 16.23525057 17.7253418 18.61108398 C18.31387939 19.38307129 18.90241699 20.15505859 19.50878906 20.95043945 C22.00587613 24.37154088 23.61205712 26.60156788 24.19799805 30.85327148 C23.7253418 33.42358398 23.7253418 33.42358398 22.1628418 35.36108398 C18.40412357 36.99949962 16.62416522 36.74521904 12.7253418 35.42358398 C10.83398438 33.33276367 10.83398438 33.33276367 8.99487305 30.84545898 C8.37845947 30.02142578 7.7620459 29.19739258 7.12695312 28.34838867 C6.66442139 27.71320313 6.20188965 27.07801758 5.7253418 26.42358398 C5.630354 27.11170166 5.53536621 27.79981934 5.4375 28.50878906 C3.39237009 43.09657329 1.03972523 57.32604462 -3.2746582 71.42358398 C-3.53118164 72.26727539 -3.78770508 73.1109668 -4.05200195 73.98022461 C-14.39734353 107.51596106 -30.20760984 140.17400479 -62.1340332 157.89233398 C-77.06033212 165.16983296 -91.07312387 166.74534731 -107.3918457 166.75952148 C-109.13917141 166.76595814 -110.88649606 166.77268713 -112.63381958 166.7796936 C-116.27649438 166.79160637 -119.9190747 166.79537998 -123.56176758 166.79418945 C-128.22919016 166.79398508 -132.89601197 166.8214353 -137.56329155 166.85573387 C-141.16294145 166.87794672 -144.76244449 166.88202895 -148.36215591 166.88097 C-150.08376283 166.88332872 -151.80537363 166.89216755 -153.52691269 166.90763474 C-155.92747557 166.92720824 -158.32671118 166.92149487 -160.72729492 166.90942383 C-161.43591171 166.92066284 -162.1445285 166.93190186 -162.87461853 166.94348145 C-166.24851599 166.90032035 -168.00038705 166.63173942 -170.72084045 164.56707764 C-172.86479637 161.6094876 -172.73202663 160.02730823 -172.2746582 156.42358398 C-171.5126726 153.8514162 -170.69790202 151.4264839 -169.73950195 148.93139648 C-169.46958939 148.20512558 -169.19967682 147.47885468 -168.92158508 146.73057556 C-168.02786823 144.33293088 -167.12026576 141.94081143 -166.2121582 139.54858398 C-165.57886375 137.8606543 -164.94639122 136.17241603 -164.31469727 134.48388672 C-162.98639437 130.93735668 -161.65249173 127.39299777 -160.31518555 123.84985352 C-158.30539168 118.51719727 -156.3287398 113.17263277 -154.35668945 107.82592773 C-141.2240655 72.28706205 -141.2240655 72.28706205 -133.2746582 55.42358398 C-132.93950195 54.70009766 -132.6043457 53.97661133 -132.2590332 53.23120117 C-127.10334702 42.24979419 -120.01882986 30.18306408 -108.2746582 25.42358398 C-103.23149956 24.4750275 -98.64598068 24.80313675 -94.1496582 27.36108398 C-81.5262655 36.53712446 -76.41983494 50.68014554 -70.20043945 64.40600586 C-61.24940649 87.28878085 -61.24940649 87.28878085 -44.2746582 103.42358398 C-40.22182411 103.93939923 -37.91852405 103.72580673 -34.2121582 101.98608398 C-14.47141527 84.76543589 -11.99361864 49.60280586 -8.2746582 25.42358398 C-9.56550031 26.53741029 -10.85414228 27.65378675 -12.1418457 28.77124023 C-12.85969238 29.39264893 -13.57753906 30.01405762 -14.31713867 30.65429688 C-16.38550891 32.45348871 -16.38550891 32.45348871 -18.3996582 34.86108398 C-20.2746582 36.42358398 -20.2746582 36.42358398 -23.3371582 36.86108398 C-26.2746582 36.42358398 -26.2746582 36.42358398 -28.1496582 35.36108398 C-29.95532646 32.25132198 -29.66127525 29.96284569 -29.2746582 26.42358398 C-27.50638605 23.96861334 -25.93734073 22.1244076 -23.7980957 20.05249023 C-23.23522858 19.4852977 -22.67236145 18.91810516 -22.09243774 18.33372498 C-20.90206484 17.14297173 -19.70296753 15.96088417 -18.49584961 14.78710938 C-16.65333694 12.98967273 -14.84808575 11.16007456 -13.04418945 9.32397461 C-11.88089089 8.16889537 -10.71558999 7.01582849 -9.5480957 5.86499023 C-9.01034515 5.31823135 -8.4725946 4.77147247 -7.91854858 4.20814514 C-5.26642674 1.66892707 -3.68691742 0.47691059 0 0 Z " fill="#F6F6F7" transform="translate(318.274658203125,394.576416015625)"/>
<path d="M0 0 C5.29653843 4.37918383 8.10077961 10.69090122 10.875 16.8125 C11.51453613 18.18704346 11.51453613 18.18704346 12.16699219 19.58935547 C14.935236 25.56863824 17.59830909 31.59338683 20.25 37.625 C26.58902081 51.99874138 33.54279535 67.31529084 48 75 C48.64839844 75.36609375 49.29679687 75.7321875 49.96484375 76.109375 C52.27934152 77.12224543 54.23909328 77.40344941 56.75 77.625 C57.94882812 77.73714844 57.94882812 77.73714844 59.171875 77.8515625 C60.07679688 77.92503906 60.07679688 77.92503906 61 78 C51.25036241 94.6607731 35.59668117 106.13443961 17.4375 112.1875 C8.79309828 114.23072223 0.27566856 114.13247648 -8.5625 114.09765625 C-9.96354115 114.09578795 -11.36458296 114.094366 -12.765625 114.09336853 C-16.42834318 114.08957576 -20.09102083 114.07977366 -23.75372314 114.06866455 C-27.50117444 114.05838026 -31.24863237 114.05385596 -34.99609375 114.04882812 C-42.33074751 114.03814804 -49.66536805 114.02111119 -57 114 C-55.19887852 107.05029091 -53.15445056 100.29354384 -50.62890625 93.57421875 C-50.31046249 92.71620163 -49.99201874 91.85818451 -49.66392517 90.97416687 C-48.63567826 88.20983172 -47.59974081 85.44847188 -46.5625 82.6875 C-46.03052002 81.26561371 -46.03052002 81.26561371 -45.48779297 79.81500244 C-14.77481707 -2.25378566 -14.77481707 -2.25378566 0 0 Z " fill="#111212" transform="translate(219,434)"/>
<path d="M0 0 C8.91 0 17.82 0 27 0 C29.82799103 10.00673748 32.13894443 20.05495704 34.28222656 30.22900391 C36.08825619 38.78370529 37.94514095 47.32602066 39.83203125 55.86328125 C40.08120804 56.99125626 40.33038483 58.11923126 40.58711243 59.28138733 C41.60351979 63.88021912 42.62061695 68.47889315 43.6411438 73.07681274 C44.36409848 76.33467296 45.08457302 79.59307351 45.8046875 82.8515625 C46.02627029 83.84613968 46.24785309 84.84071686 46.47615051 85.86543274 C46.67721909 86.7768956 46.87828766 87.68835846 47.08544922 88.62744141 C47.26276581 89.42679108 47.4400824 90.22614075 47.62277222 91.04971313 C48 93 48 93 48 95 C40.74 95 33.48 95 26 95 C24 84.5 24 84.5 24 80 C17.4 80 10.8 80 4 80 C3.690625 82.10375 3.38125 84.2075 3.0625 86.375 C2.125 92.75 2.125 92.75 1 95 C-5.93 95 -12.86 95 -20 95 C-16.80297325 77.79204038 -13.24122611 60.68278722 -9.45504761 43.5965271 C-7.45778672 34.57154479 -5.51242162 25.53530307 -3.5625 16.5 C-3.20470151 14.84333656 -2.84687353 13.18667948 -2.48901367 11.5300293 C-1.65884301 7.68679371 -0.82943228 3.84339529 0 0 Z " fill="#131313" transform="translate(493,412)"/>
<path d="M0 0 C8.58 0 17.16 0 26 0 C28.8371632 10.39040564 31.38319552 20.79273439 33.6875 31.3125 C34.02527907 32.84426289 34.3631727 34.37600051 34.70117188 35.90771484 C37.5043999 48.63873682 40.25725114 61.38083271 43 74.125 C43.30216934 75.52535995 43.30216934 75.52535995 43.61044312 76.95401001 C44.18003171 79.59647015 44.74675024 82.23952816 45.3125 84.8828125 C45.48397049 85.67694046 45.65544098 86.47106842 45.83210754 87.28926086 C47 92.77023739 47 92.77023739 47 95 C39.74 95 32.48 95 25 95 C24.01 87.575 24.01 87.575 23 80 C16.4 80 9.8 80 3 80 C2.67 82.97 2.34 85.94 2 89 C1.67 90.98 1.34 92.96 1 95 C-5.93 95 -12.86 95 -20 95 C-18.87499865 83.74998651 -18.87499865 83.74998651 -17.98779297 79.69091797 C-17.79000244 78.77285873 -17.59221191 77.8547995 -17.38842773 76.90892029 C-17.17516846 75.94639847 -16.96190918 74.98387665 -16.7421875 73.9921875 C-16.51813232 72.95961319 -16.29407715 71.92703888 -16.06323242 70.86317444 C-15.33918952 67.53258643 -14.60728419 64.20378478 -13.875 60.875 C-13.37470253 58.58286408 -12.87486768 56.29062713 -12.37548828 53.99829102 C-11.38348725 49.44856685 -10.38837459 44.89954107 -9.390625 40.35107422 C-8.16679215 34.76880177 -6.955525 29.18390641 -5.75 23.59765625 C-5.27265512 21.39146746 -4.79493852 19.18535971 -4.31695557 16.97930908 C-4.02375931 15.62475939 -3.73123141 14.27006486 -3.43939209 12.91522217 C-3.04292447 11.0770332 -2.64267678 9.2396607 -2.2421875 7.40234375 C-2.0241748 6.39679443 -1.80616211 5.39124512 -1.58154297 4.35522461 C-1 2 -1 2 0 0 Z " fill="#131313" transform="translate(606,412)"/>
<path d="M0 0 C5.02759785 3.6986069 7.217228 9.167309 9.12890625 14.90234375 C9.20864101 16.23760092 9.23661963 17.57646458 9.2265625 18.9140625 C9.22406494 19.59686279 9.22156738 20.27966309 9.21899414 20.9831543 C9.20989014 21.84336182 9.20078613 22.70356934 9.19140625 23.58984375 C9.17078125 26.33296875 9.15015625 29.07609375 9.12890625 31.90234375 C2.52890625 31.90234375 -4.07109375 31.90234375 -10.87109375 31.90234375 C-11.00130208 28.35416667 -11.13151042 24.80598958 -11.26171875 21.2578125 C-11.56427649 17.89294649 -11.56427649 17.89294649 -13.63671875 15.98046875 C-16.07168623 14.80555437 -17.67717443 14.46945663 -20.37109375 14.46484375 C-21.12390625 14.44550781 -21.87671875 14.42617188 -22.65234375 14.40625 C-25.98359368 15.15108933 -26.87132716 16.0859199 -28.87109375 18.90234375 C-29.48864246 22.62568872 -29.43110406 26.32295836 -29.40234375 30.08984375 C-29.40808411 31.73182739 -29.40808411 31.73182739 -29.41394043 33.40698242 C-29.41666111 35.7202242 -29.40928909 38.03349667 -29.39257812 40.34667969 C-29.37117215 43.88936897 -29.39237601 47.43003011 -29.41796875 50.97265625 C-29.4153255 53.22005656 -29.41020059 55.46745562 -29.40234375 57.71484375 C-29.41044067 58.77533936 -29.4185376 59.83583496 -29.42687988 60.9284668 C-29.45033796 66.61852718 -29.45033796 66.61852718 -26.9765625 71.56835938 C-24.56844021 73.09409919 -23.20837873 73.44121067 -20.37109375 73.40234375 C-19.61828125 73.41265625 -18.86546875 73.42296875 -18.08984375 73.43359375 C-14.93930168 72.67923861 -13.80982776 71.48170291 -11.87109375 68.90234375 C-10.9628901 65.64875692 -10.9628901 65.64875692 -10.62109375 62.15234375 C-10.37359375 60.08984375 -10.12609375 58.02734375 -9.87109375 55.90234375 C-3.60109375 55.90234375 2.66890625 55.90234375 9.12890625 55.90234375 C9.37474265 66.59622701 9.46443581 76.41832219 2.12890625 84.90234375 C-6.44749926 92.00130125 -16.09188268 92.68628637 -26.87109375 91.90234375 C-33.6975188 90.60207231 -40.8586437 87.46529228 -45.41015625 82.08203125 C-50.61844696 74.31528194 -51.17527447 66.29026756 -51.13671875 57.19140625 C-51.1386322 56.18322845 -51.14054565 55.17505066 -51.14251709 54.13632202 C-51.143872 52.01340484 -51.1402243 49.89047917 -51.13183594 47.76757812 C-51.12114923 44.54407833 -51.13174356 41.32113864 -51.14453125 38.09765625 C-51.1432091 36.02473837 -51.14064555 33.95182083 -51.13671875 31.87890625 C-51.14076721 30.92754791 -51.14481567 29.97618958 -51.14898682 28.9960022 C-51.08314159 19.44560419 -50.20477561 10.44885831 -43.87109375 2.90234375 C-32.41756842 -8.31743617 -13.12301833 -7.69847213 0 0 Z " fill="#131314" transform="translate(462.87109375,416.09765625)"/>
<path d="M0 0 C18.81 0 37.62 0 57 0 C57 6.6 57 13.2 57 20 C45.12 20 33.24 20 21 20 C21 25.61 21 31.22 21 37 C31.56 37 42.12 37 53 37 C53 43.27 53 49.54 53 56 C42.44 56 31.88 56 21 56 C21 68.87 21 81.74 21 95 C14.07 95 7.14 95 0 95 C0 63.65 0 32.3 0 0 Z " fill="#121313" transform="translate(783,412)"/>
<path d="M0 0 C7.59 0 15.18 0 23 0 C27.62 10.89 32.24 21.78 37 33 C40.95341224 25.18854916 40.95341224 25.18854916 44.421875 17.24609375 C45.00001953 15.81233398 45.00001953 15.81233398 45.58984375 14.34960938 C45.97269531 13.38861328 46.35554687 12.42761719 46.75 11.4375 C47.53421388 9.47696531 48.32055299 7.5172789 49.109375 5.55859375 C49.61936035 4.27940063 49.61936035 4.27940063 50.13964844 2.97436523 C51 1 51 1 52 0 C53.63472882 -0.08700342 55.27314055 -0.10701063 56.91015625 -0.09765625 C58.39418945 -0.09282227 58.39418945 -0.09282227 59.90820312 -0.08789062 C60.94912109 -0.07951172 61.99003906 -0.07113281 63.0625 -0.0625 C64.62967773 -0.05573242 64.62967773 -0.05573242 66.22851562 -0.04882812 C68.8190666 -0.03699913 71.40950559 -0.02051689 74 0 C72.10162906 6.06912022 69.85707382 11.82839091 67.1640625 17.5859375 C66.80283295 18.36836823 66.44160339 19.15079895 66.06942749 19.9569397 C64.92573194 22.4317142 63.77556615 24.90341346 62.625 27.375 C61.86153361 29.02323119 61.09850942 30.67166729 60.3359375 32.3203125 C59.96432999 33.12207413 59.59272247 33.92383575 59.20985413 34.74989319 C58.4730218 36.34453213 57.73995433 37.94091626 57.01072693 39.53904724 C55.54966691 42.73047494 54.0819182 45.85267033 52.37524414 48.92211914 C47.62660588 57.66862617 48.21730462 66.98654689 48.1875 76.6875 C48.16431599 78.46812906 48.13894266 80.24873102 48.11132812 82.02929688 C48.04492607 86.35347928 48.02345007 90.6745288 48 95 C41.07 95 34.14 95 27 95 C27.00902344 92.50308594 27.01804687 90.00617188 27.02734375 87.43359375 C27.01224107 84.96085175 26.98529048 82.48849483 26.95727539 80.01586914 C26.94429815 78.32386149 26.94324944 76.63171161 26.95532227 74.93969727 C27.02698125 63.43672421 25.59825244 54.99024734 20.02859497 44.90884399 C18.18151255 41.48106894 16.57072229 37.94022668 14.921875 34.4140625 C14.23011 32.95397977 13.53739927 31.49434475 12.84375 30.03515625 C12.49957031 29.3095752 12.15539062 28.58399414 11.80078125 27.83642578 C11.09477679 26.35060134 10.38706775 24.86558575 9.67773438 23.38134766 C8.62927013 21.18618555 7.58751702 18.98794154 6.546875 16.7890625 C6.23433777 16.13886139 5.92180054 15.48866028 5.59979248 14.8187561 C3.28801901 9.91091315 1.74682366 5.24047099 0 0 Z " fill="#121212" transform="translate(703,412)"/>
<path d="M0 0 C20.46 0 40.92 0 62 0 C62 6.6 62 13.2 62 20 C55.4 20 48.8 20 42 20 C42 44.75 42 69.5 42 95 C35.07 95 28.14 95 21 95 C21 70.25 21 45.5 21 20 C14.07 20 7.14 20 0 20 C0 13.4 0 6.8 0 0 Z " fill="#111212" transform="translate(846,412)"/>
<path d="M0 0 C20.13 0 40.26 0 61 0 C61 6.6 61 13.2 61 20 C54.4 20 47.8 20 41 20 C41 44.75 41 69.5 41 95 C34.4 95 27.8 95 21 95 C21 70.25 21 45.5 21 20 C14.07 20 7.14 20 0 20 C0 13.4 0 6.8 0 0 Z " fill="#121213" transform="translate(533,412)"/>
<path d="M0 0 C6.93 0 13.86 0 21 0 C21 24.75 21 49.5 21 75 C31.89 75 42.78 75 54 75 C54 81.6 54 88.2 54 95 C36.18 95 18.36 95 0 95 C0 63.65 0 32.3 0 0 Z " fill="#131314" transform="translate(661,412)"/>
<path d="M0 0 C7 0 7 0 8.66503906 1.29760742 C9.2098291 2.19249878 9.2098291 2.19249878 9.765625 3.10546875 C10.18070313 3.75966797 10.59578125 4.41386719 11.0234375 5.08789062 C11.42820312 5.78076172 11.83296875 6.47363281 12.25 7.1875 C12.67023437 7.86103516 13.09046875 8.53457031 13.5234375 9.22851562 C14.70836682 11.13818945 15.85788738 13.06448362 17 15 C17.99 16.65 18.98 18.3 20 20 C20.33 13.4 20.66 6.8 21 0 C23.31 0 25.62 0 28 0 C28 11.22 28 22.44 28 34 C21 34 21 34 19.22729492 32.48706055 C18.81584229 31.79394775 18.40438965 31.10083496 17.98046875 30.38671875 C17.51576172 29.63326172 17.05105469 28.87980469 16.57226562 28.10351562 C15.88680664 26.90758789 15.88680664 26.90758789 15.1875 25.6875 C14.71119141 24.90181641 14.23488281 24.11613281 13.74414062 23.30664062 C12.85974523 21.84508705 11.98574222 20.37715733 11.12573242 18.90112305 C10.13845941 17.23382855 9.07482792 15.61224188 8 14 C7.67 20.6 7.34 27.2 7 34 C4.69 34 2.38 34 0 34 C0 22.78 0 11.56 0 0 Z " fill="#131414" transform="translate(802,537)"/>
<path d="M0 0 C3.3 0 6.6 0 10 0 C21 29.53932584 21 29.53932584 21 34 C18.36 34 15.72 34 13 34 C12.34 32.02 11.68 30.04 11 28 C7.04 28 3.08 28 -1 28 C-1.66 29.98 -2.32 31.96 -3 34 C-5.64 34 -8.28 34 -11 34 C-8.97359864 26.12667751 -6.52967236 18.47266584 -3.8125 10.8125 C-3.44447266 9.76513672 -3.07644531 8.71777344 -2.69726562 7.63867188 C-1.80159455 5.09124376 -0.90128907 2.54544587 0 0 Z " fill="#141515" transform="translate(542,537)"/>
<path d="M0 0 C3.3 0 6.6 0 10 0 C13.63 11.22 17.26 22.44 21 34 C18.36 34 15.72 34 13 34 C12.34 31.69 11.68 29.38 11 27 C6.71 27 2.42 27 -2 27 C-2.66 29.31 -3.32 31.62 -4 34 C-6.64 34 -9.28 34 -12 34 C-10.45555143 29.31733513 -8.90722028 24.63597948 -7.35522461 19.95581055 C-6.8274528 18.36241757 -6.30075694 16.7686678 -5.77514648 15.17456055 C-5.02087291 12.88756895 -4.26278011 10.60187483 -3.50390625 8.31640625 C-3.26845596 7.59973282 -3.03300568 6.88305939 -2.79042053 6.14466858 C-1.11387171 1.11387171 -1.11387171 1.11387171 0 0 Z " fill="#151516" transform="translate(744,537)"/>
<path d="M0 0 C6 0 6 0 8.16015625 2.125 C8.78792969 3.07375 9.41570313 4.0225 10.0625 5 C10.73410156 5.99644531 11.40570312 6.99289062 12.09765625 8.01953125 C12.72542969 9.00308594 13.35320313 9.98664062 14 11 C14.53496094 11.82886719 15.06992187 12.65773438 15.62109375 13.51171875 C16.77110942 15.3263327 17.88959003 17.16088349 19 19 C19.33 13.06 19.66 7.12 20 1 C22.31 1 24.62 1 27 1 C27 11.89 27 22.78 27 34 C21 34 21 34 18.83984375 31.875 C18.21207031 30.92625 17.58429687 29.9775 16.9375 29 C16.30714844 28.071875 15.67679688 27.14375 15.02734375 26.1875 C12.66391771 22.47159316 10.33402689 18.73444303 8 15 C7.67 21.27 7.34 27.54 7 34 C4.69 34 2.38 34 0 34 C0 22.78 0 11.56 0 0 Z " fill="#151515" transform="translate(645,537)"/>
<path d="M0 0 C3.39441253 1.81946265 6.18610419 3.78440499 7.96875 7.23828125 C7.63875 8.22828125 7.30875 9.21828125 6.96875 10.23828125 C5.31875 10.56828125 3.66875 10.89828125 1.96875 11.23828125 C1.5046875 10.24828125 1.5046875 10.24828125 1.03125 9.23828125 C-1.83793103 6.4560451 -4.01041274 6.75855908 -7.875 6.70703125 C-10.15857566 7.0791132 -10.15857566 7.0791132 -11.7890625 8.92578125 C-13.28949168 11.71903305 -13.43228605 13.57924084 -13.40625 16.73828125 C-13.41398438 17.67671875 -13.42171875 18.61515625 -13.4296875 19.58203125 C-12.96523083 22.67840905 -12.26649271 24.05866676 -10.03125 26.23828125 C-7.32500396 26.93121118 -4.77226787 26.72468317 -2.03125 26.23828125 C0.14351401 24.69490034 0.78707637 23.60162852 1.96875 21.23828125 C-0.67125 21.23828125 -3.31125 21.23828125 -6.03125 21.23828125 C-6.03125 19.25828125 -6.03125 17.27828125 -6.03125 15.23828125 C-1.08125 15.23828125 3.86875 15.23828125 8.96875 15.23828125 C9.49640991 21.14807227 8.88304188 24.64321943 5.44921875 29.5390625 C2.75126311 32.63566066 0.04531583 33.90952634 -3.98046875 34.546875 C-9.11443445 34.86958142 -12.02582225 33.60648186 -16.03125 30.23828125 C-21.00365701 24.59392735 -21.4365174 21.02209922 -21.37890625 13.58203125 C-20.76112415 7.64021693 -18.14839887 4.12019136 -13.78125 0.23828125 C-9.17984219 -1.43495795 -4.6414211 -1.74053291 0 0 Z " fill="#141415" transform="translate(630.03125,537.76171875)"/>
<path d="M0 0 C2.31 0 4.62 0 7 0 C7 4.62 7 9.24 7 14 C11.29 14 15.58 14 20 14 C20 9.38 20 4.76 20 0 C22.31 0 24.62 0 27 0 C27 11.22 27 22.44 27 34 C24.69 34 22.38 34 20 34 C20 29.38 20 24.76 20 20 C15.71 20 11.42 20 7 20 C7 24.62 7 29.24 7 34 C4.69 34 2.38 34 0 34 C0 22.78 0 11.56 0 0 Z " fill="#111112" transform="translate(871,537)"/>
<path d="M0 0 C2.31 0 4.62 0 7 0 C7.01981934 0.67579102 7.03963867 1.35158203 7.06005859 2.04785156 C7.15543238 5.11562044 7.26506165 8.18271998 7.375 11.25 C7.4059375 12.31347656 7.436875 13.37695312 7.46875 14.47265625 C7.50742187 15.49746094 7.54609375 16.52226563 7.5859375 17.578125 C7.6173584 18.52075195 7.6487793 19.46337891 7.68115234 20.43457031 C8.00600977 23.04835429 8.67676162 24.74353034 10 27 C11.27875 27.061875 12.5575 27.12375 13.875 27.1875 C14.59429688 27.22230469 15.31359375 27.25710938 16.0546875 27.29296875 C16.69664062 27.19628906 17.33859375 27.09960938 18 27 C20.22535794 23.66196309 20.28978404 22.37180289 20.4140625 18.45703125 C20.45273437 17.38388672 20.49140625 16.31074219 20.53125 15.20507812 C20.57765625 13.52575195 20.57765625 13.52575195 20.625 11.8125 C20.66367187 10.68134766 20.70234375 9.55019531 20.7421875 8.38476562 C20.83652533 5.5900075 20.92211652 2.79525722 21 0 C23.31 0 25.62 0 28 0 C28.08746928 4.04152915 28.14054982 8.08281305 28.1875 12.125 C28.21263672 13.26710938 28.23777344 14.40921875 28.26367188 15.5859375 C28.35611228 26.18577097 28.35611228 26.18577097 25 31 C21.39530985 34.37212949 18.43516009 34.86711481 13.625 35.3125 C8.47760695 34.86875922 5.55822633 32.7731541 2.1875 28.9375 C0.01883654 25.39915435 -0.11909401 22.50876802 -0.09765625 18.45703125 C-0.09443359 17.38388672 -0.09121094 16.31074219 -0.08789062 15.20507812 C-0.07951172 14.08552734 -0.07113281 12.96597656 -0.0625 11.8125 C-0.05798828 10.68134766 -0.05347656 9.55019531 -0.04882812 8.38476562 C-0.03703498 5.58979073 -0.0205765 2.7949218 0 0 Z " fill="#141415" transform="translate(768,537)"/>
<path d="M0 0 C5.24788123 1.85219338 7.81912419 4.60290696 11 9 C11 9.66 11 10.32 11 11 C9.02 11.66 7.04 12.32 5 13 C4.34 11.35 3.68 9.7 3 8 C-2.59884336 6.83232871 -2.59884336 6.83232871 -8 8.1875 C-11.18547989 12.66708109 -10.86762804 17.67854804 -10 23 C-8.83874795 25.37780398 -8.83874795 25.37780398 -7 27 C-3.82778114 27.46048338 -2.01410469 27.70954605 1 27 C4.00333267 24.66663334 4.00333267 24.66663334 6 22 C7.65 22.66 9.3 23.32 11 24 C9.60485497 28.43909781 7.52304189 30.98024981 4 34 C2.125 34.8125 2.125 34.8125 0 35 C-1.6396875 35.1546875 -1.6396875 35.1546875 -3.3125 35.3125 C-9.32716887 34.8027823 -12.56351022 32.69432128 -16.4375 28.125 C-19.22226037 22.5675345 -18.70721618 16.01133754 -18 10 C-14.53227966 2.26431616 -8.28114668 -1.34423423 0 0 Z " fill="#171718" transform="translate(854,537)"/>
<path d="M0 0 C8.25 0 16.5 0 25 0 C25 2.31 25 4.62 25 7 C22.36 7 19.72 7 17 7 C17 15.91 17 24.82 17 34 C14.36 34 11.72 34 9 34 C9 25.09 9 16.18 9 7 C6.03 7 3.06 7 0 7 C0 4.69 0 2.38 0 0 Z " fill="#191A1A" transform="translate(479,537)"/>
<path d="M0 0 C6.93 0 13.86 0 21 0 C21 2.31 21 4.62 21 7 C16.38 7 11.76 7 7 7 C7 9.64 7 12.28 7 15 C10.63 15 14.26 15 18 15 C18 16.65 18 18.3 18 20 C14.37 20 10.74 20 7 20 C7 24.62 7 29.24 7 34 C4.69 34 2.38 34 0 34 C0 22.78 0 11.56 0 0 Z " fill="#19191A" transform="translate(453,537)"/>
<path d="M0 0 C0.33 0 0.66 0 1 0 C1 24.42 1 48.84 1 74 C12.22 74 23.44 74 35 74 C35 80.6 35 87.2 35 94 C17.18 94 -0.64 94 -19 94 C-19 63.31 -19 32.62 -19 1 C-18.67 1 -18.34 1 -18 1 C-18 31.03 -18 61.06 -18 92 C-1.17 92 15.66 92 33 92 C33 86.72 33 81.44 33 76 C29.55240234 76.01740234 29.55240234 76.01740234 26.03515625 76.03515625 C23.81779112 76.04294709 21.60042749 76.04902369 19.38305664 76.05493164 C17.83780234 76.0599714 16.29255284 76.0668032 14.74731445 76.07543945 C12.53074971 76.08752076 10.31424782 76.09323173 8.09765625 76.09765625 C7.05545677 76.10539818 7.05545677 76.10539818 5.99220276 76.11329651 C4.3277067 76.11349277 2.66334501 76.06189129 1 76 C-0.66165207 74.33834793 -0.11959725 72.3348397 -0.12442017 70.11598206 C-0.12082489 69.41827194 -0.11722961 68.72056183 -0.11352539 68.00170898 C-0.11367142 67.27004517 -0.11381744 66.53838135 -0.1139679 65.7845459 C-0.11326867 63.35503216 -0.10547585 60.92559417 -0.09765625 58.49609375 C-0.0957921 56.81600486 -0.09436819 55.13591543 -0.09336853 53.45582581 C-0.08954307 49.02526357 -0.07971256 44.5947339 -0.06866455 40.16418457 C-0.05845103 35.64657024 -0.05387104 31.12895066 -0.04882812 26.61132812 C-0.03809031 17.74087107 -0.02101356 8.87043824 0 0 Z " fill="#0B0B0B" transform="translate(680,413)"/>
<path d="M0 0 C20.13 0 40.26 0 61 0 C60.67 1.32 60.34 2.64 60 4 C60 3.34 60 2.68 60 2 C40.86 2 21.72 2 2 2 C2 7.61 2 13.22 2 19 C8.6 19 15.2 19 22 19 C22 43.42 22 67.84 22 93 C27.94 93 33.88 93 40 93 C40 68.58 40 44.16 40 19 C40.33 19 40.66 19 41 19 C41 44.08 41 69.16 41 95 C34.4 95 27.8 95 21 95 C21 70.25 21 45.5 21 20 C14.07 20 7.14 20 0 20 C0 13.4 0 6.8 0 0 Z " fill="#0A0A0A" transform="translate(533,412)"/>
<path d="M0 0 C2.31 0 4.62 0 7 0 C7 9.24 7 18.48 7 28 C11.62 28 16.24 28 21 28 C21 29.98 21 31.96 21 34 C14.07 34 7.14 34 0 34 C0 22.78 0 11.56 0 0 Z " fill="#111111" transform="translate(707,537)"/>
<path d="M0 0 C2.31 0 4.62 0 7 0 C7 9.24 7 18.48 7 28 C11.62 28 16.24 28 21 28 C21 29.98 21 31.96 21 34 C14.07 34 7.14 34 0 34 C0 22.78 0 11.56 0 0 Z " fill="#121213" transform="translate(569,537)"/>
<path d="M0 0 C2.31 0 4.62 0 7 0 C7 9.24 7 18.48 7 28 C11.62 28 16.24 28 21 28 C21 29.98 21 31.96 21 34 C14.07 34 7.14 34 0 34 C0 22.78 0 11.56 0 0 Z " fill="#141515" transform="translate(412,537)"/>
<path d="M0 0 C3.52608936 0.79682091 5.13219838 2.63435481 7.1953125 5.49609375 C7.1953125 6.48609375 7.1953125 7.47609375 7.1953125 8.49609375 C2.7403125 8.99109375 2.7403125 8.99109375 -1.8046875 9.49609375 C-2.1346875 11.47609375 -2.4646875 13.45609375 -2.8046875 15.49609375 C-0.1646875 15.49609375 2.4753125 15.49609375 5.1953125 15.49609375 C3.4453125 20.37109375 3.4453125 20.37109375 1.1953125 21.49609375 C-5.8625874 22.17911632 -5.8625874 22.17911632 -9.3046875 19.68359375 C-11.53628324 14.9414528 -11.53782903 10.64351899 -10.8046875 5.49609375 C-8.43957163 0.25170638 -5.38215317 -0.29308755 0 0 Z " fill="#F3F4F4" transform="translate(626.8046875,543.50390625)"/>
<path d="M0 0 C0.66 0 1.32 0 2 0 C2.65362754 3.91540608 3.2964178 7.83252191 3.9375 11.75 C4.11990234 12.84183594 4.30230469 13.93367188 4.49023438 15.05859375 C5.67966036 22.36815706 6.46994752 29.6127423 7 37 C3.04 37 -0.92 37 -5 37 C-4.38917607 28.4870433 -3.34341561 20.16562205 -1.9375 11.75 C-1.75123047 10.61175781 -1.56496094 9.47351563 -1.37304688 8.30078125 C-0.91952589 5.53314039 -0.46179385 2.76627031 0 0 Z " fill="#EBEBEC" transform="translate(506,437)"/>
<path d="M0 0 C0.33 0 0.66 0 1 0 C1.71929322 4.28553369 2.43109738 8.5722267 3.13623047 12.86010742 C3.37672869 14.31617081 3.61920815 15.77190848 3.86376953 17.22729492 C4.21658589 19.32907238 4.56206875 21.43194959 4.90625 23.53515625 C5.11572266 24.797229 5.32519531 26.05930176 5.54101562 27.35961914 C5.99366196 30.94973058 6.08144523 34.38586804 6 38 C2.04 38 -1.92 38 -6 38 C-5.30849078 29.68599258 -3.94524751 21.5768086 -2.4375 13.375 C-2.20353516 12.08464844 -1.96957031 10.79429687 -1.72851562 9.46484375 C-1.15583257 6.30924322 -0.57958347 3.15433912 0 0 Z " fill="#EFEFF0" transform="translate(619,436)"/>
<path d="M0 0 C2.31 0 4.62 0 7 0 C7 11.22 7 22.44 7 34 C4.69 34 2.38 34 0 34 C0 22.78 0 11.56 0 0 Z " fill="#151517" transform="translate(439,537)"/>
<path d="M0 0 C2.31 0 4.62 0 7 0 C7 11.22 7 22.44 7 34 C4.69 34 2.38 34 0 34 C0 22.78 0 11.56 0 0 Z " fill="#101111" transform="translate(596,537)"/>
<path d="M0 0 C0.66 0 1.32 0 2 0 C2.66 1.98 3.32 3.96 4 6 C5.32 4.35 6.64 2.7 8 1 C10.47412934 3.1957736 11.57916306 4.99239924 12.60546875 8.125 C12.99702148 9.30835938 12.99702148 9.30835938 13.39648438 10.515625 C13.78803711 11.74539063 13.78803711 11.74539063 14.1875 13 C14.46013672 13.81984375 14.73277344 14.6396875 15.01367188 15.484375 C17 21.57777256 17 21.57777256 17 25 C14.36 25 11.72 25 9 25 C8.34 23.02 7.68 21.04 7 19 C5.35 18.67 3.7 18.34 2 18 C2 17.67 2 17.34 2 17 C3.65 17 5.3 17 7 17 C6.67 15.68 6.34 14.36 6 13 C3.03 12.67 0.06 12.34 -3 12 C-2.01 8.04 -1.02 4.08 0 0 Z " fill="#171718" transform="translate(546,546)"/>
<path d="M0 0 C4.95 0 9.9 0 15 0 C15.53206306 5.95910626 14.8799791 9.4946537 11.41015625 14.43359375 C10 16 10 16 7.75 17 C6.8425 17 5.935 17 5 17 C3.85337891 17.01740234 3.85337891 17.01740234 2.68359375 17.03515625 C0.45359443 17.05958504 -1.77044711 17.04371672 -4 17 C-4 16.67 -4 16.34 -4 16 C-1.36 15.67 1.28 15.34 4 15 C4 14.34 4 13.68 4 13 C2.02 13 0.04 13 -2 13 C-2 12.67 -2 12.34 -2 12 C-0.72125 11.7525 0.5575 11.505 1.875 11.25 C5.26747318 10.48009414 5.26747318 10.48009414 7.5 7.875 C7.665 7.25625 7.83 6.6375 8 6 C5.36 6 2.72 6 0 6 C0 4.02 0 2.04 0 0 Z " fill="#202021" transform="translate(624,553)"/>
<path d="M0 0 C4.20448464 1.58782079 7.89537601 3.92229101 10 8 C9.67 8.99 9.34 9.98 9 11 C7.35 11.33 5.7 11.66 4 12 C3.649375 11.360625 3.29875 10.72125 2.9375 10.0625 C0.22815794 7.17836168 -2.15858911 7.2899178 -6 7 C-6.33 6.01 -6.66 5.02 -7 4 C-5.35 3.67 -3.7 3.34 -2 3 C-4.97 3 -7.94 3 -11 3 C-11 3.66 -11 4.32 -11 5 C-12.32 4.67 -13.64 4.34 -15 4 C-10.1338111 0.00722962 -6.26966975 -1.09037735 0 0 Z " fill="#1B1B1B" transform="translate(628,537)"/>
<path d="M0 0 C2.31 0 4.62 0 7 0 C7 11.22 7 22.44 7 34 C4.69 34 2.38 34 0 34 C0 22.78 0 11.56 0 0 Z M2 2 C2 12.23 2 22.46 2 33 C3.32 33 4.64 33 6 33 C6 22.77 6 12.54 6 2 C4.68 2 3.36 2 2 2 Z " fill="#1E1E1E" transform="translate(439,537)"/>
<path d="M0 0 C8.25 0 16.5 0 25 0 C25 1.98 25 3.96 25 6 C22.69 6 20.38 6 18 6 C18 5.67 18 5.34 18 5 C19.98 5 21.96 5 24 5 C24 4.01 24 3.02 24 2 C16.74 2 9.48 2 2 2 C2 2.99 2 3.98 2 5 C4.64 5 7.28 5 10 5 C10 14.57 10 24.14 10 34 C9.67 34 9.34 34 9 34 C9 25.09 9 16.18 9 7 C6.03 7 3.06 7 0 7 C0 4.69 0 2.38 0 0 Z " fill="#404041" transform="translate(479,537)"/>
<path d="M0 0 C2.31 0 4.62 0 7 0 C7 0.66 7 1.32 7 2 C5.35 2 3.7 2 2 2 C2 12.23 2 22.46 2 33 C3.32 33 4.64 33 6 33 C6 26.4 6 19.8 6 13 C6.33 13 6.66 13 7 13 C7 19.93 7 26.86 7 34 C4.69 34 2.38 34 0 34 C0 22.78 0 11.56 0 0 Z " fill="#252626" transform="translate(802,537)"/>
<path d="M0 0 C2.31 0 4.62 0 7 0 C7 8.25 7 16.5 7 25 C6.67 25 6.34 25 6 25 C6 17.41 6 9.82 6 2 C4.68 2 3.36 2 2 2 C2 9.59 2 17.18 2 25 C1.34 24.67 0.68 24.34 0 24 C0 16.08 0 8.16 0 0 Z " fill="#212121" transform="translate(768,537)"/>
<path d="M0 0 C2.31 0 4.62 0 7 0 C7 4.62 7 9.24 7 14 C11.29 14 15.58 14 20 14 C20 9.38 20 4.76 20 0 C22.31 0 24.62 0 27 0 C27 0.33 27 0.66 27 1 C25.02 1 23.04 1 21 1 C21.01160156 1.99902344 21.02320313 2.99804688 21.03515625 4.02734375 C21.04417969 5.31769531 21.05320312 6.60804688 21.0625 7.9375 C21.07410156 9.22527344 21.08570313 10.51304687 21.09765625 11.83984375 C21 15 21 15 20 16 C17.85692104 16.12537741 15.70921114 16.17574364 13.5625 16.1875 C11.80099609 16.20876953 11.80099609 16.20876953 10.00390625 16.23046875 C7 16 7 16 5 14 C4.69307181 10.91317934 4.62104483 7.8504227 4.5390625 4.75 C4.30839164 1.85889027 4.30839164 1.85889027 1.9609375 0.625 C1.31382812 0.41875 0.66671875 0.2125 0 0 Z " fill="#282829" transform="translate(871,537)"/>
<path d="M0 0 C2.31 0.33 4.62 0.66 7 1 C6.01 4.96 5.02 8.92 4 13 C2.35 13 0.7 13 -1 13 C-0.67 8.71 -0.34 4.42 0 0 Z " fill="#1D1D1D" transform="translate(506,565)"/>
<path d="M0 0 C2.97 0.495 2.97 0.495 6 1 C5.68950274 2.43793392 5.3765224 3.8753318 5.0625 5.3125 C4.88847656 6.11300781 4.71445312 6.91351562 4.53515625 7.73828125 C4 10 4 10 3 13 C1.35 13 -0.3 13 -2 13 C-1.85915204 11.20793453 -1.71216299 9.41635083 -1.5625 7.625 C-1.48128906 6.62726562 -1.40007813 5.62953125 -1.31640625 4.6015625 C-1 2 -1 2 0 0 Z " fill="#121213" transform="translate(681,565)"/>
<path d="M0 0 C1.90389849 2.85584773 2.69462177 4.9311762 3.625 8.1875 C3.88539063 9.08855469 4.14578125 9.98960937 4.4140625 10.91796875 C4.60742188 11.60503906 4.80078125 12.29210937 5 13 C2.03 13 -0.94 13 -4 13 C-2.68 8.71 -1.36 4.42 0 0 Z " fill="#EFEFF0" transform="translate(748,545)"/>
<path d="M0 0 C0.66 0 1.32 0 2 0 C2.99 3.96 3.98 7.92 5 12 C2.36 12 -0.28 12 -3 12 C-2.01 8.04 -1.02 4.08 0 0 Z " fill="#EFF0F0" transform="translate(546,546)"/>
<path d="M0 0 C2.31 0 4.62 0 7 0 C7 8.25 7 16.5 7 25 C6.67 25 6.34 25 6 25 C5.96036133 24.31373535 5.92072266 23.6274707 5.87988281 22.92041016 C5.68970824 19.82035453 5.47024112 16.72305845 5.25 13.625 C5.1571875 12.00464844 5.1571875 12.00464844 5.0625 10.3515625 C4.98515625 9.3203125 4.9078125 8.2890625 4.828125 7.2265625 C4.7652832 6.27346191 4.70244141 5.32036133 4.63769531 4.33837891 C4.23208686 1.82647187 4.23208686 1.82647187 1.94824219 0.67333984 C1.30532227 0.4511377 0.66240234 0.22893555 0 0 Z " fill="#333436" transform="translate(789,537)"/>
<path d="M0 0 C0.66 0 1.32 0 2 0 C2.33 4.29 2.66 8.58 3 13 C2.01 13.33 1.02 13.66 0 14 C-1.41778293 11.16443413 -0.86257622 9.0091294 -0.5625 5.875 C-0.46066406 4.77929688 -0.35882813 3.68359375 -0.25390625 2.5546875 C-0.17011719 1.71164062 -0.08632813 0.86859375 0 0 Z " fill="#E1E1E1" transform="translate(506,437)"/>
<path d="M0 0 C3.78318216 3.78318216 5.53673537 6.42536568 8 11 C5.00667261 10.0022242 4.05233685 9.2477975 2 7 C2 8.98 2 10.96 2 13 C1.67 13 1.34 13 1 13 C0.67 8.71 0.34 4.42 0 0 Z " fill="#F2F2F3" transform="translate(652,551)"/>
<path d="M0 0 C0.33 0 0.66 0 1 0 C1 1.65 1 3.3 1 5 C1.99 5.33 2.98 5.66 4 6 C4 7.65 4 9.3 4 11 C2.35 11 0.7 11 -1 11 C-0.67 7.37 -0.34 3.74 0 0 Z " fill="#242424" transform="translate(680,567)"/>
<path d="M0 0 C0.33 0 0.66 0 1 0 C1 2.97 1 5.94 1 9 C3.97 9.33 6.94 9.66 10 10 C10 10.33 10 10.66 10 11 C6.04 11 2.08 11 -2 11 C-1.125 1.125 -1.125 1.125 0 0 Z " fill="#CACACA" transform="translate(615,463)"/>
<path d="M0 0 C0.66 0 1.32 0 2 0 C2 0.99 2 1.98 2 3 C-4.6 3 -11.2 3 -18 3 C-18 2.67 -18 2.34 -18 2 C-16.17662109 1.90912109 -16.17662109 1.90912109 -14.31640625 1.81640625 C-12.73175772 1.73201668 -11.14712298 1.6473679 -9.5625 1.5625 C-8.76005859 1.52318359 -7.95761719 1.48386719 -7.13085938 1.44335938 C-3.24760439 1.5945704 -3.24760439 1.5945704 0 0 Z " fill="#1D1E1F" transform="translate(605,504)"/>
<path d="M0 0 C0.66 0 1.32 0 2 0 C2.6875 2.8125 2.6875 2.8125 3 6 C1.6875 7.875 1.6875 7.875 0 9 C-0.66 9 -1.32 9 -2 9 C-1.34 6.03 -0.68 3.06 0 0 Z " fill="#E0E0E0" transform="translate(546,546)"/>
<path d="M0 0 C0.66 0.66 1.32 1.32 2 2 C1.625 5.125 1.625 5.125 1 8 C0.01 8.33 -0.98 8.66 -2 9 C-1.34 6.03 -0.68 3.06 0 0 Z " fill="#E3E3E4" transform="translate(512,568)"/>
<path d="M0 0 C2.31 0 4.62 0 7 0 C6.67 3.63 6.34 7.26 6 11 C5.67 11 5.34 11 5 11 C4.97421875 10.37351562 4.9484375 9.74703125 4.921875 9.1015625 C4.86515625 8.28429687 4.8084375 7.46703125 4.75 6.625 C4.70359375 5.81289063 4.6571875 5.00078125 4.609375 4.1640625 C4.2077908 1.81161073 4.2077908 1.81161073 1.953125 0.7109375 C1.30859375 0.47632813 0.6640625 0.24171875 0 0 Z " fill="#2D2D2D" transform="translate(789,537)"/>
<path d="M0 0 C2 3 2 3 2 5 C1.34 5 0.68 5 0 5 C-0.12375 5.804375 -0.2475 6.60875 -0.375 7.4375 C-0.58125 8.283125 -0.7875 9.12875 -1 10 C-1.99 10.495 -1.99 10.495 -3 11 C-2.01 7.37 -1.02 3.74 0 0 Z " fill="#D9DADA" transform="translate(748,545)"/>
<path d="M0 0 C0.33 0 0.66 0 1 0 C1.25 7.625 1.25 7.625 -1 11 C-2.26264601 6.70700357 -1.62950412 4.12168689 0 0 Z " fill="#1F1F1F" transform="translate(539,545)"/>
</svg>
